<?xml version="1.0" ?><!DOCTYPE svg  PUBLIC '-//W3C//DTD SVG 1.1//EN'  'http://www.w3.org/Graphics/SVG/1.1/DTD/svg11.dtd'>
<svg width="512px" height="512px" fill="none" viewBox="0 0 30 30" id="vk_logo"
    xmlns="http://www.w3.org/2000/svg"
    xmlns:xlink="http://www.w3.org/1999/xlink">
    <path d="M0 12.458C0 6.585 0 3.65 1.824 1.824 3.65 0 6.585 0 12.458 0h1.084c5.873 0 8.809 0 10.633 1.824C26 3.65 26 6.585 26 12.458v1.084c0 5.873 0 8.809-1.825 10.633C22.351 26 19.416 26 13.543 26h-1.084c-5.873 0-8.809 0-10.634-1.825C0 22.351 0 19.416 0 13.543v-1.084z" style="fill:#2787F5"></path>
    <path d="M7.042 8.125H5.146c-.542 0-.65.255-.65.536 0 .502.643 2.993 2.993 6.287 1.566 2.25 3.773 3.469 5.782 3.469 1.205 0 1.354-.271 1.354-.738v-1.7c0-.541.114-.65.496-.65.281 0 .763.141 1.888 1.226 1.285 1.285 1.497 1.862 2.22 1.862h1.896c.542 0 .813-.271.656-.806-.17-.532-.784-1.305-1.599-2.221-.442-.523-1.104-1.085-1.305-1.366-.281-.362-.201-.522 0-.844 0 0 2.31-3.253 2.55-4.358.121-.402 0-.697-.573-.697h-1.896c-.482 0-.704.255-.824.536 0 0-.965 2.35-2.33 3.877-.442.441-.643.582-.884.582-.12 0-.295-.14-.295-.542V8.822c0-.482-.14-.697-.542-.697h-2.979c-.301 0-.482.224-.482.436 0 .457.683.562.753 1.848V13.2c0 .613-.11.724-.351.724-.643 0-2.207-2.361-3.134-5.062-.182-.525-.364-.737-.848-.737z" style="fill-rule:evenodd;clip-rule:evenodd;fill:#fff"></path>
</svg>